<svg xmlns="http://www.w3.org/2000/svg" width="400" height="100" fill="none" viewBox="0 0 400 100">
  <path fill="#030303" d="M0 0h400v100H0z"/>
  <path fill="url(#paint0_linear_76_37)" d="M0 0h125L83.333 100H0V0z"/>
  <path fill="#fff" d="M151.52 63.12V66h-8.16v-2.88h2.4V37.68h-2.4V34.8h8.16v2.88h-2.4v25.44h2.4zM163.019 66h-3.36V34.8h3.36l10.416 24v-24h3.36V66h-3.36l-10.416-24v24zm38.623-6c0 4.48-2.704 6.72-8.112 6.72-5.408 0-8.112-2.24-8.112-6.72v-4.08h3.36v4.272c0 1.152.4 2.048 1.2 2.688.8.64 1.984.96 3.552.96s2.752-.32 3.552-.96c.8-.64 1.2-1.504 1.2-2.592 0-1.12-.128-2-.384-2.64-.224-.672-.704-1.376-1.44-2.112l-8.448-8.256c-.992-.992-1.68-1.952-2.064-2.88-.352-.96-.528-2.16-.528-3.6 0-2.144.656-3.792 1.968-4.944 1.344-1.184 3.36-1.776 6.048-1.776 5.152 0 7.728 2.24 7.728 6.72v4.08h-3.36v-4.272c0-1.152-.384-2.048-1.152-2.688-.736-.64-1.856-.96-3.36-.96-1.504 0-2.64.32-3.408.96-.736.64-1.104 1.52-1.104 2.64s.112 2 .336 2.64c.224.64.72 1.312 1.488 2.016l8.592 8.256c.928 1.024 1.568 2.016 1.92 2.976.352.928.528 2.112.528 3.552zm21.122-25.2v2.88h-6.24V66h-3.36V37.68h-6.24V34.8h15.84zm8.478 0h5.04l7.056 31.2h-3.36l-1.632-7.2h-9.168l-1.632 7.2h-3.36l7.056-31.2zm2.496 3.744l-3.936 17.376h7.872l-3.936-17.376zm22.68 14.496v-2.88h8.736V66h-1.44l-1.248-3.072a8.156 8.156 0 01-2.64 2.784 6.633 6.633 0 01-3.552 1.008c-4.64 0-6.96-2.24-6.96-6.72V40.8c0-2.144.656-3.792 1.968-4.944 1.312-1.184 3.28-1.776 5.904-1.776s4.608.592 5.952 1.776c1.344 1.152 2.016 2.8 2.016 4.944v2.64h-3.36V40.8c0-2.56-1.52-3.84-4.56-3.84-3.04 0-4.56 1.28-4.56 3.84V60c0 1.216.256 2.16.768 2.832.512.672 1.44 1.008 2.784 1.008 1.376 0 2.64-.544 3.792-1.632 1.184-1.088 1.776-2.144 1.776-3.168v-6h-5.376zM277.394 66h-3.36V34.8h7.248c2.496 0 4.384.592 5.664 1.776 1.312 1.184 1.968 2.832 1.968 4.944v6.72c0 3.264-1.408 5.344-4.224 6.24L290.594 66h-3.696l-5.616-11.04h-3.888V66zm8.16-17.76v-6.72c0-1.216-.368-2.16-1.104-2.832-.736-.672-1.792-1.008-3.168-1.008h-3.888v14.4h3.888c2.848 0 4.272-1.28 4.272-3.84zm15.953-13.44h5.04l7.056 31.2h-3.36l-1.632-7.2h-9.168l-1.632 7.2h-3.36l7.056-31.2zm2.496 3.744l-3.936 17.376h7.872l-3.936-17.376zM323.66 66h-3.36V34.8h5.04l5.472 20.592 5.52-20.592h5.04V66h-3.36V40.176L332.396 61.2h-3.12l-5.616-21.024V66zM50 24.188c8.413 0 9.4.037 12.725.187 3.075.137 4.738.65 5.85 1.087 1.475.576 2.525 1.25 3.625 2.35s1.787 2.15 2.35 3.625c.425 1.113.95 2.775 1.088 5.85.15 3.325.187 4.313.187 12.726 0 8.412-.038 9.4-.188 12.724-.137 3.075-.65 4.738-1.087 5.85-.575 1.475-1.25 2.525-2.35 3.626-1.1 1.1-2.15 1.787-3.625 2.35-1.112.424-2.775.95-5.85 1.087-3.325.15-4.313.188-12.725.188-8.413 0-9.4-.038-12.725-.188-3.075-.138-4.737-.65-5.85-1.088-1.475-.575-2.525-1.25-3.625-2.35s-1.788-2.15-2.35-3.624c-.425-1.113-.95-2.775-1.087-5.85-.15-3.325-.188-4.313-.188-12.725 0-8.413.037-9.4.188-12.725.137-3.075.65-4.738 1.087-5.85.575-1.476 1.25-2.525 2.35-3.625s2.15-1.788 3.625-2.35c1.113-.425 2.775-.95 5.85-1.088 3.325-.163 4.313-.188 12.725-.188zm0-5.675c-8.55 0-9.625.037-12.987.187-3.35.15-5.638.688-7.638 1.463-2.075.8-3.825 1.887-5.575 3.637s-2.825 3.512-3.637 5.575c-.776 2-1.313 4.288-1.463 7.65-.15 3.35-.188 4.425-.188 12.975s.038 9.625.188 12.987c.15 3.35.688 5.638 1.463 7.65.8 2.076 1.887 3.826 3.637 5.576 1.75 1.75 3.512 2.825 5.575 3.637 2 .775 4.288 1.313 7.65 1.463 3.363.15 4.425.187 12.988.187 8.562 0 9.625-.037 12.987-.188 3.35-.15 5.638-.687 7.65-1.462 2.075-.8 3.825-1.887 5.575-3.637s2.825-3.513 3.638-5.575c.775-2 1.312-4.288 1.462-7.65.15-3.363.188-4.425.188-12.988 0-8.563-.038-9.625-.188-12.987-.15-3.35-.688-5.638-1.463-7.65-.8-2.075-1.887-3.825-3.637-5.575s-3.512-2.826-5.575-3.638c-2-.775-4.288-1.313-7.65-1.462-3.375-.138-4.45-.175-13-.175z"/>
  <path fill="#fff" d="M50 33.825c-8.925 0-16.175 7.237-16.175 16.175S41.075 66.175 50 66.175 66.175 58.925 66.175 50 58.925 33.825 50 33.825zM50 60.5c-5.8 0-10.5-4.7-10.5-10.5S44.2 39.5 50 39.5 60.5 44.2 60.5 50 55.8 60.5 50 60.5zM66.813 36.962a3.775 3.775 0 100-7.55 3.775 3.775 0 000 7.55z"/>
  <defs>
    <linearGradient id="paint0_linear_76_37" x1="63" x2="62.5" y1="0" y2="100" gradientUnits="userSpaceOnUse">
      <stop stop-color="#9839F3"/>
      <stop offset="1" stop-color="#7E0DE7"/>
    </linearGradient>
  </defs>
</svg>
