<svg xmlns="http://www.w3.org/2000/svg" width="400" height="100" fill="none" viewBox="0 0 400 100">
  <path fill="#030303" d="M0 0h400v100H0z"/>
  <path fill="url(#paint0_linear_76_31)" d="M0 0h125L83.333 100H0V0z"/>
  <path fill="#fff" d="M160.4 40.8V60c0 2.144-.688 3.808-2.064 4.992-1.344 1.152-3.376 1.728-6.096 1.728-2.688 0-4.72-.576-6.096-1.728-1.376-1.184-2.064-2.848-2.064-4.992V40.8c0-2.144.672-3.792 2.016-4.944 1.376-1.184 3.408-1.776 6.096-1.776 2.72 0 4.768.592 6.144 1.776 1.376 1.152 2.064 2.8 2.064 4.944zM157.04 60V40.8c0-2.56-1.6-3.84-4.8-3.84-3.2 0-4.8 1.28-4.8 3.84V60c0 2.56 1.6 3.84 4.8 3.84 3.2 0 4.8-1.28 4.8-3.84zm15.589 6h-3.36V34.8h3.36l10.416 24v-24h3.36V66h-3.36l-10.416-24v24zm23.359 0V34.8h3.36v28.32h8.784V66h-12.144zm23.195 0h-3.36V54.816l-7.92-20.016h3.552l6.048 16.08 6.048-16.08h3.552l-7.92 20.064V66zm17.29 0h-3.36V34.8h13.2v2.88h-9.84v11.04h7.92v2.88h-7.92V66zm18.816-31.2h5.04l7.056 31.2h-3.36l-1.632-7.2h-9.168l-1.632 7.2h-3.36l7.056-31.2zm2.496 3.744l-3.936 17.376h7.872l-3.936-17.376zM277.441 66h-3.36V34.8h3.36l10.416 24v-24h3.36V66h-3.36l-10.416-24v24zm38.623-6c0 4.48-2.704 6.72-8.112 6.72-5.408 0-8.112-2.24-8.112-6.72v-4.08h3.36v4.272c0 1.152.4 2.048 1.2 2.688.8.64 1.984.96 3.552.96s2.752-.32 3.552-.96c.8-.64 1.2-1.504 1.2-2.592 0-1.12-.128-2-.384-2.64-.224-.672-.704-1.376-1.44-2.112l-8.448-8.256c-.992-.992-1.68-1.952-2.064-2.88-.352-.96-.528-2.16-.528-3.6 0-2.144.656-3.792 1.968-4.944 1.344-1.184 3.36-1.776 6.048-1.776 5.152 0 7.728 2.24 7.728 6.72v4.08h-3.36v-4.272c0-1.152-.384-2.048-1.152-2.688-.736-.64-1.856-.96-3.36-.96-1.504 0-2.64.32-3.408.96-.736.64-1.104 1.52-1.104 2.64s.112 2 .336 2.64c.224.64.72 1.312 1.488 2.016l8.592 8.256c.928 1.024 1.568 2.016 1.92 2.976.352.928.528 2.112.528 3.552zM37.07 20.704c-4.2 1.8-7.9 4.5-10.9 7.9-3 3.4-5.3 7.4-6.7 11.7-1.4 4.3-1.8 8.9-1.2 13.5.5 4.5 2.1 8.9 4.4 12.8 2.3 3.9 5.5 7.2 9.3 9.8 3.8 2.6 8 4.3 12.5 5.1 4.5.8 9.1.6 13.5-.5s8.5-3.2 12.1-6.1l-2.5-3.1c-3.1 2.5-6.7 4.3-10.6 5.3-3.9 1-7.9 1.2-11.8.5-3.9-.7-7.7-2.2-11-4.5-3.3-2.2-6.1-5.2-8.1-8.6-2.1-3.4-3.4-7.2-3.9-11.1-.5-4-.1-8 1.1-11.8 1.2-3.8 3.2-7.3 5.8-10.3 2.7-3 5.9-5.3 9.6-6.9l-1.6-3.7z"/>
  <path fill="#fff" d="M51.97 59.504c1.2-.7 2-2 2-3.5 0-2.2-1.8-4-4-4s-4 1.8-4 4c0 1.5.8 2.8 2 3.5v2.5c0 1.1.9 2 2 2s2-.9 2-2v-2.5zm11-10.5h-26v13l13 6 13-6v-13z"/>
  <path fill="#fff" d="M37.97 51.004c0-.6.4-1 1-1h22c.6 0 1 .4 1 1v3c0 5.9-4.3 7.7-10 8 0 1.1-.9 2-2 2s-2-.9-2-2c-5.7-.3-10-2-10-8v-3zm1-5c-2.8 0-5 2.2-5 5v3c0 8.8 7.2 16 16 16s16-7.2 16-16v-3c0-2.8-2.2-5-5-5h-22z"/>
  <path fill="#fff" d="M77.67 34.004c4.2 7.3 5.4 16.1 3.2 24.3s-7.6 15.2-14.9 19.4l-2-3.5c6.4-3.7 11.1-9.8 13-17 1.9-7.2 1-14.8-2.8-21.2-3.7-6.4-9.8-11.1-17-13-7.1-2-14.8-1-21.2 2.8l-2-3.5c7.3-4.3 16.1-5.4 24.3-3.2s15.2 7.6 19.4 14.9zm-19.7 8v8h3c.6 0 1 .4 1 1v3c0 4.1-2 7.7-5.1 9.9l2.3 3.3c4.1-3 6.8-7.8 6.8-13.2v-3c0-2.4-1.7-4.4-4-4.9v-4.1c0-6.6-5.4-12-12-12s-12 5.4-12 12v4.1c.3-.1.7-.1 1-.1h3v-4c0-4.4 3.6-8 8-8s8 3.6 8 8z"/>
  <defs>
    <linearGradient id="paint0_linear_76_31" x1="63" x2="62.5" y1="0" y2="100" gradientUnits="userSpaceOnUse">
      <stop stop-color="#9839F3"/>
      <stop offset="1" stop-color="#7E0DE7"/>
    </linearGradient>
  </defs>
</svg>
