<svg xmlns="http://www.w3.org/2000/svg" width="400" height="100" fill="none" viewBox="0 0 400 100">
  <path fill="#030303" d="M0 0h400v100H0z"/>
  <path fill="url(#paint0_linear_76_2)" d="M0 0h125L83.333 100H0V0z"/>
  <path fill="#fff" d="M157.28 34.8v2.88h-6.24V66h-3.36V37.68h-6.24V34.8h15.84zm12.943 28.32V66h-8.16v-2.88h2.4V37.68h-2.4V34.8h8.16v2.88h-2.4v25.44h2.4zM181.771 66h-3.36V34.8h3.36v13.248l8.352-13.248h3.744l-8.496 13.44L194.443 66h-3.696l-7.392-14.544L181.771 54v12zm30.915-31.2v2.88h-6.24V66h-3.36V37.68h-6.24V34.8h15.84zm21.823 6V60c0 2.144-.688 3.808-2.064 4.992-1.344 1.152-3.376 1.728-6.096 1.728-2.688 0-4.72-.576-6.096-1.728-1.376-1.184-2.064-2.848-2.064-4.992V40.8c0-2.144.672-3.792 2.016-4.944 1.376-1.184 3.408-1.776 6.096-1.776 2.72 0 4.768.592 6.144 1.776 1.376 1.152 2.064 2.8 2.064 4.944zm-3.36 19.2V40.8c0-2.56-1.6-3.84-4.8-3.84-3.2 0-4.8 1.28-4.8 3.84V60c0 2.56 1.6 3.84 4.8 3.84 3.2 0 4.8-1.28 4.8-3.84zm15.637 6h-3.36V34.8h3.36v13.248l8.352-13.248h3.744l-8.496 13.44L259.458 66h-3.696l-7.392-14.544L246.786 54v12z"/>
  <path fill="#fff" fill-rule="evenodd" d="M68.769 39.14c-2.677-.082-5.102-1.361-6.93-3.078a10.01 10.01 0 01-3.09-7.395h-7.452v27.772c0 4.686-2.794 7.452-6.262 7.452a6.267 6.267 0 110-12.528 6.2 6.2 0 012.025.357v-7.589a9.368 9.368 0 00-2.025-.214 13.71 13.71 0 00-9.684 23.404 13.709 13.709 0 0023.398-9.696V43.11c2.888 2.012 6.337 2.944 10.02 3.006v-6.977z" clip-rule="evenodd"/>
  <defs>
    <linearGradient id="paint0_linear_76_2" x1="63" x2="62.5" y1="0" y2="100" gradientUnits="userSpaceOnUse">
      <stop stop-color="#9839F3"/>
      <stop offset="1" stop-color="#7E0DE7"/>
    </linearGradient>
  </defs>
</svg>
