<svg xmlns="http://www.w3.org/2000/svg" width="400" height="100" fill="none" viewBox="0 0 400 100">
  <path fill="#030303" d="M0 0h400v100H0z"/>
  <path fill="url(#paint0_linear_76_25)" d="M0 0h125L83.333 100H0V0z"/>
  <path fill="#fff" d="M157.28 34.8v2.88h-6.24V66h-3.36V37.68h-6.24V34.8h15.84zM170.223 66h-4.704l-4.656-31.2h3.36l3.936 26.352 5.136-26.352h3.6l5.136 26.352 3.936-26.352h3.36L184.671 66h-4.704l-4.896-24.912L170.223 66zm32.766-2.88V66h-8.16v-2.88h2.4V37.68h-2.4V34.8h8.16v2.88h-2.4v25.44h2.4zm20.619-28.32v2.88h-6.24V66h-3.36V37.68h-6.24V34.8h15.84zm18.703 0v2.88h-6.24V66h-3.36V37.68h-6.24V34.8h15.84zM262.694 66h-14.16V34.8h13.68v2.88h-10.32v11.04h8.4v2.88h-8.4v11.52h10.8V66zm10.575 0h-3.36V34.8h7.248c2.496 0 4.384.592 5.664 1.776 1.312 1.184 1.968 2.832 1.968 4.944v6.72c0 3.264-1.408 5.344-4.224 6.24L286.469 66h-3.696l-5.616-11.04h-3.888V66zm8.16-17.76v-6.72c0-1.216-.368-2.16-1.104-2.832-.736-.672-1.792-1.008-3.168-1.008h-3.888v14.4h3.888c2.848 0 4.272-1.28 4.272-3.84zM79.992 31.688a24.474 24.474 0 01-6.95 1.912 12.158 12.158 0 005.326-6.7 24.04 24.04 0 01-7.688 2.938 12.089 12.089 0 00-13.47-2.915 12.104 12.104 0 00-7.468 11.189c0 .95.1 1.876.312 2.762a34.293 34.293 0 01-24.95-12.662 12.136 12.136 0 003.762 16.176c-2-.05-3.876-.6-5.5-1.512v.15A12.112 12.112 0 0033.078 54.9c-1.04.281-2.111.424-3.188.424-.776 0-1.538-.076-2.276-.226a12.12 12.12 0 0011.312 8.412A24.265 24.265 0 0121 68.524 33.82 33.82 0 0039.524 74c22.288 0 34.462-18.462 34.462-34.476 0-.524-.012-1.05-.038-1.562a24.65 24.65 0 006.038-6.276l.006.002z"/>
  <defs>
    <linearGradient id="paint0_linear_76_25" x1="63" x2="62.5" y1="0" y2="100" gradientUnits="userSpaceOnUse">
      <stop stop-color="#9839F3"/>
      <stop offset="1" stop-color="#7E0DE7"/>
    </linearGradient>
  </defs>
</svg>
