<svg xmlns="http://www.w3.org/2000/svg" width="400" height="100" fill="none" viewBox="0 0 400 100">
  <path fill="#030303" d="M0 0h400v100H0z"/>
  <path fill="url(#paint0_linear_76_49)" d="M0 0h125L83.333 100H0V0z"/>
  <path fill="#fff" d="M157.28 34.8v2.88h-6.24V66h-3.36V37.68h-6.24V34.8h15.84zM170.223 66h-4.704l-4.656-31.2h3.36l3.936 26.352 5.136-26.352h3.6l5.136 26.352 3.936-26.352h3.36L184.671 66h-4.704l-4.896-24.912L170.223 66zm32.766-2.88V66h-8.16v-2.88h2.4V37.68h-2.4V34.8h8.16v2.88h-2.4v25.44h2.4zm20.619-28.32v2.88h-6.24V66h-3.36V37.68h-6.24V34.8h15.84zM241.591 60v-2.64h3.36V60c0 2.144-.656 3.808-1.968 4.992-1.312 1.152-3.28 1.728-5.904 1.728s-4.608-.576-5.952-1.728c-1.344-1.184-2.016-2.848-2.016-4.992V40.8c0-2.144.656-3.792 1.968-4.944 1.312-1.184 3.28-1.776 5.904-1.776s4.608.592 5.952 1.776c1.344 1.152 2.016 2.8 2.016 4.944v4.56h-3.36V40.8c0-2.56-1.52-3.84-4.56-3.84-3.04 0-4.56 1.28-4.56 3.84V60c0 2.56 1.52 3.84 4.56 3.84 3.04 0 4.56-1.28 4.56-3.84zm15.132 6h-3.36V34.8h3.36v13.92h9.456V34.8h3.36V66h-3.36V51.6h-9.456V66z"/>
  <g clip-path="url(#clip0_76_49)">
    <path fill="#fff" d="M23.602 18l-4.17 11.118v44.466h15.28v8.342h8.342l8.334-8.342h12.504l16.675-16.67V18H23.602zm5.554 5.555H75.01V54.13l-9.729 9.73H50l-8.331 8.33v-8.33H29.156V23.555zm15.286 27.799H50V34.679h-5.558v16.675zm15.283 0h5.557V34.679h-5.557v16.675z"/>
  </g>
  <defs>
    <linearGradient id="paint0_linear_76_49" x1="63" x2="62.5" y1="0" y2="100" gradientUnits="userSpaceOnUse">
      <stop stop-color="#9839F3"/>
      <stop offset="1" stop-color="#7E0DE7"/>
    </linearGradient>
    <clipPath id="clip0_76_49">
      <path fill="#fff" d="M0 0h64v64H0z" transform="translate(18 18)"/>
    </clipPath>
  </defs>
</svg>
