<svg xmlns="http://www.w3.org/2000/svg" width="400" height="100" fill="none" viewBox="0 0 400 100">
  <path fill="#030303" d="M0 0h400v100H0z"/>
  <path fill="url(#paint0_linear_76_43)" d="M0 0h125L83.333 100H0V0z"/>
  <path fill="#fff" d="M152.48 66h-3.36V54.816L141.2 34.8h3.552l6.048 16.08 6.048-16.08h3.552l-7.92 20.064V66zm29.529-25.2V60c0 2.144-.688 3.808-2.064 4.992-1.344 1.152-3.376 1.728-6.096 1.728-2.688 0-4.72-.576-6.096-1.728-1.376-1.184-2.064-2.848-2.064-4.992V40.8c0-2.144.672-3.792 2.016-4.944 1.376-1.184 3.408-1.776 6.096-1.776 2.72 0 4.768.592 6.144 1.776 1.376 1.152 2.064 2.8 2.064 4.944zm-3.36 19.2V40.8c0-2.56-1.6-3.84-4.8-3.84-3.2 0-4.8 1.28-4.8 3.84V60c0 2.56 1.6 3.84 4.8 3.84 3.2 0 4.8-1.28 4.8-3.84zm24.709 0V34.8h3.36V60c0 2.144-.688 3.808-2.064 4.992-1.344 1.152-3.376 1.728-6.096 1.728-2.688 0-4.72-.576-6.096-1.728-1.376-1.184-2.064-2.848-2.064-4.992V34.8h3.36V60c0 2.56 1.6 3.84 4.8 3.84 3.2 0 4.8-1.28 4.8-3.84zm24.938-25.2v2.88h-6.24V66h-3.36V37.68h-6.24V34.8h15.84zM246.999 60V34.8h3.36V60c0 2.144-.688 3.808-2.064 4.992-1.344 1.152-3.376 1.728-6.096 1.728-2.688 0-4.72-.576-6.096-1.728-1.376-1.184-2.064-2.848-2.064-4.992V34.8h3.36V60c0 2.56 1.6 3.84 4.8 3.84 3.2 0 4.8-1.28 4.8-3.84zm12.457-25.2h7.248c2.496 0 4.384.592 5.664 1.776 1.312 1.184 1.968 2.832 1.968 4.944v2.88c0 2.72-1.136 4.464-3.408 5.232 2.592.704 3.888 2.48 3.888 5.328v4.32c0 2.144-.64 3.808-1.92 4.992-1.28 1.152-3.184 1.728-5.712 1.728h-7.728V34.8zm12 24.48v-4.32c0-1.024-.384-1.952-1.152-2.784-.768-.864-1.808-1.296-3.12-1.296h-4.368v12.24h4.368c1.344 0 2.384-.368 3.12-1.104.768-.768 1.152-1.68 1.152-2.736zm-.48-14.88v-2.88c0-1.024-.384-1.92-1.152-2.688-.736-.768-1.776-1.152-3.12-1.152h-3.888v10.8h3.888c1.344 0 2.384-.416 3.12-1.248.768-.832 1.152-1.776 1.152-2.832zM297.851 66h-14.16V34.8h13.68v2.88h-10.32v11.04h8.4v2.88h-8.4v11.52h10.8V66z"/>
  <g clip-path="url(#clip0_76_43)">
    <path fill="#fff" d="M17.004 68.666c0 2.625.866 4.857 2.598 6.694 1.732 1.837 3.84 2.756 6.326 2.756h47.826c2.485 0 4.594-.919 6.326-2.756 1.732-1.837 2.598-4.069 2.598-6.694v-38.06c0-2.625-.875-4.883-2.626-6.772-1.75-1.89-3.85-2.834-6.3-2.834H25.926c-2.45 0-4.55.945-6.3 2.834-1.75 1.89-2.626 4.147-2.626 6.772v38.06h.004zm23.888-6.878V37.482c0-.245.07-.438.21-.578a.873.873 0 01.262-.052l.262.052 22.888 12.18c.14.14.21.315.21.524 0 .14-.07.28-.21.42l-22.888 12.18c-.07.07-.14.104-.21.104-.14 0-.245-.035-.316-.104-.14-.14-.21-.28-.21-.42h.002z"/>
  </g>
  <defs>
    <linearGradient id="paint0_linear_76_43" x1="63" x2="62.5" y1="0" y2="100" gradientUnits="userSpaceOnUse">
      <stop stop-color="#9839F3"/>
      <stop offset="1" stop-color="#7E0DE7"/>
    </linearGradient>
    <clipPath id="clip0_76_43">
      <path fill="#fff" d="M0 0h64v64H0z" transform="translate(18 18)"/>
    </clipPath>
  </defs>
</svg>
